<svg width="282" height="129" viewBox="0 0 282 129" fill="none" xmlns="http://www.w3.org/2000/svg">
<g clip-path="url(#clip0_3952_2250)">
<path d="M50.8792 125.755V103.014H0.0644531V81.2925L45.086 7.30188H74.5486V83.3289H89.1144V103.014H74.5486V125.755H50.8792ZM19.9269 83.3289H50.8792V33.6059H49.224L19.9269 83.3289Z" fill="#4E5C6B"/>
<path d="M243.368 125.755V103.014H192.553V81.2925L237.575 7.30188H267.038V83.3289H281.603V103.014H267.038V125.755H243.368ZM212.416 83.3289H243.368V33.6059H241.713L212.416 83.3289Z" fill="#4E5C6B"/>
<mask id="mask0_3952_2250" style="mask-type:alpha" maskUnits="userSpaceOnUse" x="0" y="7" width="282" height="119">
<path d="M50.8792 125.755V103.014H0.0644531V81.2925L45.086 7.30188H74.5486V83.3289H89.1144V103.014H74.5486V125.755H50.8792ZM19.9269 83.3289H50.8792V33.6059H49.224L19.9269 83.3289Z" fill="#394148"/>
<path d="M243.368 125.755V103.014H192.553V81.2925L237.575 7.30188H267.038V83.3289H281.603V103.014H267.038V125.755H243.368ZM212.416 83.3289H243.368V33.6059H241.713L212.416 83.3289Z" fill="#394148"/>
</mask>
<g mask="url(#mask0_3952_2250)">
<g filter="url(#filter0_f_3952_2250)">
<ellipse cx="142.584" cy="77.8868" rx="72.0843" ry="73.8302" fill="#2A2E37"/>
</g>
</g>
<g filter="url(#filter1_f_3952_2250)">
<path d="M143.684 19.618C186.025 16.55 214.646 62.3302 193.006 99.8322C174.107 132.59 127.897 134.628 105.883 104.083C81.9501 70.8788 103.311 22.5441 143.684 19.6214V19.618ZM136.385 30.721C131.66 31.4778 120.193 38.4079 117.426 42.422C115.847 44.7095 116.042 47.622 118.096 49.521C119.019 50.3724 124.709 53.7344 125.986 54.2953C128.481 55.3867 129.921 55.5015 132.397 54.2953C133.528 53.7445 141.06 49.1459 141.621 48.5208C143.794 46.0982 143.704 39.7087 143.439 36.5292C143.074 32.2009 140.718 30.0317 136.388 30.7243L136.385 30.721ZM156.575 30.721C151.827 31.6164 152.344 40.5062 152.782 44.1959C153.008 46.0914 153.652 47.9532 155.171 49.1763C155.968 49.8183 163.018 54.0284 163.944 54.4C167.979 56.0219 172.136 53.2242 175.504 51.0043C181.43 47.0949 180.623 43.787 175.686 39.4114C171.874 36.0325 161.615 29.7715 156.575 30.721ZM146.966 54.6399C141.869 55.8327 145.37 64.4522 150.018 61.1172C153.618 58.5358 151.01 53.6939 146.966 54.6399ZM110.233 58.0154C109.479 58.1742 108.524 58.8669 107.993 59.4379C104.39 63.3067 104.851 80.2179 107.213 84.8639C108.182 86.7662 110.03 87.7629 112.137 87.6041C114.178 87.4521 122.592 82.2959 123.7 80.4882C125.363 77.7716 124.205 75.3253 124.195 72.5986C124.185 69.1082 125.698 66.2227 122.353 63.3811C121.242 62.435 114.539 58.4209 113.312 58.0965C112.383 57.8532 111.168 57.8194 110.233 58.0154ZM182.72 58.0154C181.629 58.2452 175.577 61.8639 174.425 62.712C171.38 64.9556 171.555 67.1012 171.562 70.5747C171.562 71.2133 171.92 71.8823 171.917 72.602C171.907 75.7477 170.55 78.4001 172.883 81.3634C173.676 82.3703 181.267 87.1243 182.472 87.4386C184.598 87.9927 187.083 87.6176 188.441 85.7458C191.5 81.5256 191.46 64.3238 188.58 59.9853C187.246 57.9783 184.996 57.5356 182.717 58.0154H182.72ZM136.358 65.1313C133.103 61.8504 127.599 67.2127 131.487 70.5983C134.968 73.6325 139.553 68.3514 136.358 65.1313ZM164.836 65.1212C161.426 61.9079 155.941 67.4053 160.132 70.7504C163.735 73.6258 167.959 68.0642 164.836 65.1212ZM146.644 65.4354C138.259 66.8613 139.474 81.4985 149.468 79.7652C158.237 78.2413 156.203 63.8136 146.644 65.4354ZM138.362 81.5999C134.945 82.3872 134.802 88.4049 138.946 88.6313C144.726 88.9489 143.754 80.3565 138.362 81.5999ZM154.448 82.644C151.143 86.4519 157.132 91.1688 159.976 87.4318C162.832 83.6779 157.398 79.2448 154.448 82.644ZM141.982 113.091C144.066 110.783 143.85 101.184 142.613 98.3624C141.335 95.4566 138.25 94.6997 135.711 93.257C133.007 91.7196 132.071 89.8173 128.355 90.2836C127.101 90.4424 119.234 94.8754 118.259 95.8384C116.046 98.0245 116.006 101.491 118.109 103.765C120.814 106.695 126.049 110.188 129.633 111.918C133.127 113.604 138.777 116.642 141.989 113.091H141.982ZM165.51 90.3748C164.893 90.4762 164.173 90.8445 163.599 91.1249C162.278 91.7635 156.153 95.291 155.221 96.0749C153.489 97.5346 152.845 99.7072 152.676 101.91C152.354 106.093 151.963 114.723 157.829 114.912C160.706 115.007 168.616 111.013 171.194 109.307C175.408 106.516 183.391 100.836 177.339 95.6965C175.995 94.5578 168.914 90.51 167.385 90.3207C166.724 90.2396 166.16 90.2667 165.51 90.3748Z" fill="black" fill-opacity="0.1"/>
</g>
<path d="M210.66 65.6839L210.663 68.1509C210.666 70.2829 210.849 71.8649 210.708 74.2358C210.676 74.7727 210.705 75.2696 210.66 75.8065C210.043 83.143 207.502 92.4471 204.018 98.8834C202.279 102.095 196.701 108.908 196.132 111.707C195.499 114.823 198.459 115.838 199.255 118.343C200.227 121.397 199.089 124.625 196.001 125.611L88.3668 125.771C84.854 125.015 83.2973 122.163 84.2179 118.569C84.9243 115.812 88.2134 115 87.3567 111.455C86.6503 108.531 81.517 102.498 79.759 99.3188C64.2981 71.3737 76.2557 32.874 100.363 14.2822C144.191 -19.5196 205.996 10.3111 210.663 65.6839H210.66ZM137.575 19.0849C98.6815 21.92 78.1032 68.7482 101.159 100.92C122.367 130.515 166.882 128.541 185.089 96.8012C205.932 60.4655 178.364 16.109 137.575 19.0816V19.0849Z" fill="#22272D"/>
<path d="M205.942 66.063V68.0078C205.426 69.8681 205.423 72.6098 205.942 74.4961C205.911 75.0294 205.985 75.5856 205.942 76.1189C205.346 83.4072 202.893 92.6501 199.529 99.044C197.851 102.234 192.466 109.002 191.916 111.783C191.305 114.879 194.163 115.887 194.931 118.375C195.869 121.41 194.771 124.616 191.79 125.595L87.8765 125.755C84.4852 125.003 82.9823 122.171 83.8711 118.6C84.5531 115.861 87.7284 115.055 86.9014 111.533C86.2194 108.628 81.2635 102.634 79.5663 99.4765C64.64 71.7154 76.1842 33.469 99.4578 14.9995C141.771 -18.5799 201.439 11.0546 205.945 66.063H205.942ZM135.383 19.7706C97.8346 22.587 77.9678 69.1071 100.226 101.067C120.701 130.467 163.678 128.506 181.255 96.9756C201.378 60.8789 174.762 16.8143 135.383 19.7673V19.7706Z" fill="#46525F"/>
<path d="M207.526 66.8383V68.7578C207.54 70.9906 207.65 73.0189 207.526 75.1618C207.496 75.6882 207.569 76.2372 207.526 76.7636C206.942 83.9572 204.532 93.0801 201.229 99.3909C199.58 102.54 194.291 109.22 193.752 111.965C193.152 115.02 195.958 116.016 196.713 118.471C197.634 121.466 196.555 124.631 193.627 125.597L91.5696 125.755C88.2388 125.013 86.7628 122.217 87.6357 118.693C88.3055 115.99 91.4241 115.194 90.6119 111.717C89.9421 108.851 85.0747 102.935 83.4078 99.8179C68.748 72.4173 80.0861 34.6676 102.944 16.4379C144.502 -16.7054 203.105 12.5442 207.529 66.8383H207.526ZM138.228 21.147C101.35 23.9269 81.8378 69.8428 103.699 101.388C123.808 130.406 166.017 128.47 183.28 97.3494C203.044 61.7215 176.904 18.2291 138.228 21.1438V21.147Z" fill="#3A444D"/>
<g filter="url(#filter2_i_3952_2250)">
<path d="M137.576 19.0849C178.364 16.1123 205.936 60.4688 185.09 96.8046C166.883 128.544 122.367 130.518 101.159 100.923C78.104 68.7515 98.6822 21.92 137.576 19.0882V19.0849ZM130.544 29.8426C125.992 30.5759 114.945 37.2904 112.28 41.1797C110.758 43.396 110.947 46.218 112.925 48.0579C113.814 48.8829 119.296 52.1403 120.526 52.6838C122.93 53.7412 124.317 53.8525 126.702 52.6838C127.792 52.1501 135.047 47.6945 135.587 47.0889C137.681 44.7415 137.595 38.5508 137.339 35.4702C136.988 31.2765 134.718 29.1747 130.547 29.8458L130.544 29.8426ZM149.994 29.8426C145.42 30.7101 145.918 39.3234 146.34 42.8984C146.557 44.735 147.178 46.5389 148.641 47.724C149.409 48.346 156.201 52.4251 157.093 52.7852C160.979 54.3567 164.984 51.646 168.229 49.4951C173.938 45.7073 173.161 42.5023 168.405 38.2627C164.732 34.9889 154.849 28.9226 149.994 29.8426ZM140.737 53.0177C135.827 54.1733 139.199 62.5247 143.677 59.2935C147.146 56.7924 144.633 52.101 140.737 53.0177ZM105.35 56.2882C104.624 56.4421 103.704 57.1132 103.192 57.6665C99.7211 61.4149 100.165 77.8002 102.441 82.3017C103.375 84.1448 105.155 85.1106 107.185 84.9567C109.15 84.8094 117.256 79.8136 118.324 78.0621C119.925 75.43 118.81 73.0598 118.8 70.4178C118.791 67.036 120.248 64.2402 117.026 61.487C115.955 60.5703 109.499 56.681 108.316 56.3668C107.421 56.1311 106.251 56.0983 105.35 56.2882ZM175.181 56.2882C174.129 56.5108 168.299 60.017 167.19 60.8387C164.256 63.0125 164.425 65.0914 164.432 68.4568C164.432 69.0756 164.777 69.7238 164.774 70.4211C164.764 73.469 163.457 76.0389 165.704 78.91C166.468 79.8856 173.781 84.4918 174.941 84.7963C176.99 85.3332 179.384 84.9698 180.691 83.1561C183.638 79.0672 183.6 62.4003 180.826 58.1968C179.541 56.2522 177.374 55.8233 175.178 56.2882H175.181ZM130.518 63.1828C127.382 60.0039 122.08 65.1994 125.826 68.4798C129.179 71.4196 133.596 66.3027 130.518 63.1828ZM157.952 63.173C154.667 60.0596 149.383 65.386 153.42 68.6271C156.891 71.4131 160.96 66.0244 157.952 63.173ZM140.427 63.4774C132.35 64.859 133.519 79.041 143.147 77.3615C151.595 75.8851 149.636 61.906 140.427 63.4774ZM132.449 79.1392C129.156 79.902 129.019 85.7326 133.011 85.952C138.579 86.2597 137.643 77.9345 132.449 79.1392ZM147.945 80.1508C144.761 83.8404 150.531 88.4106 153.27 84.7898C156.022 81.1526 150.786 76.8574 147.945 80.1508ZM135.936 109.651C137.943 107.415 137.735 98.1141 136.543 95.3805C135.313 92.565 132.34 91.8317 129.895 90.4338C127.29 88.9442 126.388 87.1011 122.808 87.5528C121.6 87.7067 114.022 92.0019 113.082 92.9349C110.95 95.0531 110.912 98.412 112.938 100.615C115.543 103.454 120.587 106.839 124.039 108.515C127.405 110.148 132.848 113.092 135.942 109.651H135.936ZM158.601 87.6412C158.007 87.7394 157.313 88.0963 156.76 88.368C155.488 88.9867 149.588 92.4046 148.689 93.1641C147.021 94.5784 146.401 96.6834 146.238 98.8179C145.928 102.871 145.551 111.232 151.202 111.415C153.973 111.507 161.593 107.637 164.077 105.984C168.136 103.28 175.827 97.7769 169.996 92.7974C168.702 91.6942 161.881 87.7722 160.407 87.5889C159.771 87.5103 159.228 87.5365 158.601 87.6412Z" fill="url(#paint0_linear_3952_2250)"/>
</g>
<path d="M140.426 63.4773C149.634 61.9026 151.594 75.885 143.146 77.3615C133.518 79.0442 132.348 64.8589 140.426 63.4773Z" fill="#2F4051"/>
<path d="M140.736 53.0176C144.632 52.101 147.144 56.789 143.676 59.2935C139.198 62.5247 135.826 54.1765 140.736 53.0176Z" fill="#2F4051"/>
<path d="M157.953 63.173C160.96 66.0244 156.895 71.4164 153.42 68.6271C149.38 65.3828 154.667 60.0563 157.953 63.173Z" fill="#2F4051"/>
<path d="M130.517 63.1828C133.595 66.3027 129.177 71.4197 125.824 68.4798C122.081 65.1995 127.384 60.004 130.517 63.1828Z" fill="#2F4051"/>
<path d="M147.944 80.1508C150.786 76.8574 156.021 81.1526 153.269 84.7898C150.53 88.4106 144.761 83.8404 147.944 80.1508Z" fill="#2F4051"/>
<path d="M132.448 79.1392C137.642 77.9344 138.578 86.2597 133.01 85.9519C129.021 85.7326 129.155 79.9052 132.448 79.1392Z" fill="#2F4051"/>
</g>
<defs>
<filter id="filter0_f_3952_2250" x="65" y="-1.44336" width="155.168" height="158.66" filterUnits="userSpaceOnUse" color-interpolation-filters="sRGB">
<feFlood flood-opacity="0" result="BackgroundImageFix"/>
<feBlend mode="normal" in="SourceGraphic" in2="BackgroundImageFix" result="shape"/>
<feGaussianBlur stdDeviation="2.75" result="effect1_foregroundBlur_3952_2250"/>
</filter>
<filter id="filter1_f_3952_2250" x="91.9477" y="15.5717" width="112.363" height="114.083" filterUnits="userSpaceOnUse" color-interpolation-filters="sRGB">
<feFlood flood-opacity="0" result="BackgroundImageFix"/>
<feBlend mode="normal" in="SourceGraphic" in2="BackgroundImageFix" result="shape"/>
<feGaussianBlur stdDeviation="1.95" result="effect1_foregroundBlur_3952_2250"/>
</filter>
<filter id="filter2_i_3952_2250" x="91.4922" y="18.9431" width="100.729" height="102.978" filterUnits="userSpaceOnUse" color-interpolation-filters="sRGB">
<feFlood flood-opacity="0" result="BackgroundImageFix"/>
<feBlend mode="normal" in="SourceGraphic" in2="BackgroundImageFix" result="shape"/>
<feColorMatrix in="SourceAlpha" type="matrix" values="0 0 0 0 0 0 0 0 0 0 0 0 0 0 0 0 0 0 127 0" result="hardAlpha"/>
<feOffset dy="2"/>
<feComposite in2="hardAlpha" operator="arithmetic" k2="-1" k3="1"/>
<feColorMatrix type="matrix" values="0 0 0 0 1 0 0 0 0 1 0 0 0 0 1 0 0 0 0.25 0"/>
<feBlend mode="normal" in2="shape" result="effect1_innerShadow_3952_2250"/>
</filter>
<linearGradient id="paint0_linear_3952_2250" x1="108.919" y1="31.2359" x2="176.465" y2="107.116" gradientUnits="userSpaceOnUse">
<stop stop-color="#90A4AE"/>
<stop offset="0.46" stop-color="#90A4AE"/>
<stop offset="1" stop-color="#C7D1D7"/>
</linearGradient>
<clipPath id="clip0_3952_2250">
<rect width="282" height="129" fill="white"/>
</clipPath>
</defs>
</svg>
